<?xml version="1.0" standalone="no"?>
<!DOCTYPE svg PUBLIC "-//W3C//DTD SVG 20010904//EN"
 "http://www.w3.org/TR/2001/REC-SVG-20010904/DTD/svg10.dtd">
<svg version="1.0" xmlns="http://www.w3.org/2000/svg"
 width="225.000000pt" height="225.000000pt" viewBox="0 0 225.000000 225.000000"
 preserveAspectRatio="xMidYMid meet">

<g transform="translate(0.000000,225.000000) scale(0.100000,-0.100000)"
fill="#7A7A7A" stroke="none">
<path d="M26 2234 c-9 -8 -16 -23 -16 -32 0 -37 80 -294 100 -322 43 -60 138
-91 207 -67 l42 14 40 -41 40 -41 -54 -68 c-142 -177 -221 -390 -232 -627 -9
-209 29 -378 130 -574 44 -85 52 -110 55 -167 5 -79 -7 -121 -54 -190 -39 -58
-43 -93 -14 -109 28 -15 54 -5 86 33 65 77 100 204 84 305 l-10 57 338 337
337 338 166 -166 167 -167 7 -116 7 -116 161 -162 c108 -109 168 -163 183
-163 35 0 52 30 59 106 4 40 10 77 14 83 4 6 43 16 86 22 81 11 115 28 115 58
0 9 -75 91 -167 183 l-168 165 -115 7 -115 6 -165 165 -165 165 328 328 327
327 113 0 c100 0 118 3 167 26 110 52 155 113 112 152 -25 23 -26 23 -94 -23
-118 -78 -207 -80 -347 -7 -49 26 -120 58 -157 72 -219 82 -509 87 -732 11
-99 -34 -241 -110 -313 -168 -32 -26 -63 -48 -67 -48 -4 0 -25 17 -45 38 -35
36 -37 40 -26 71 18 52 7 134 -25 175 -40 53 -59 63 -212 106 -158 46 -157 45
-178 24z m211 -139 c90 -28 113 -48 113 -103 0 -72 -99 -112 -147 -59 -18 19
-63 144 -63 176 0 15 2 15 97 -14z m1268 -140 c90 -26 225 -83 225 -94 0 -3
-142 -148 -315 -321 l-315 -315 -255 255 c-140 140 -255 258 -255 262 0 13
126 101 195 136 177 89 288 113 490 108 115 -3 156 -9 230 -31z m-732 -543
l257 -257 -324 -324 -324 -324 -28 54 c-143 283 -136 631 19 911 34 63 130
198 140 198 1 0 118 -116 260 -258z m1025 -805 c56 -57 100 -106 96 -110 -4
-4 -19 -7 -33 -7 -20 0 -51 25 -129 103 -56 56 -102 106 -102 110 0 4 15 7 33
7 28 0 47 -14 135 -103z m-33 -217 c-4 -14 -9 -27 -11 -29 -3 -3 -50 40 -104
94 -93 93 -100 102 -100 140 l0 40 110 -110 c96 -96 110 -113 105 -135z"/>
</g>
</svg>
